<svg width="24" height="24" viewBox="0 0 24 24" fill="none" xmlns="http://www.w3.org/2000/svg">
<path d="M13.875 13.4062C14.1337 13.4062 14.3438 13.1962 14.3438 12.9375C14.3438 12.6788 14.1337 12.4688 13.875 12.4688C13.6163 12.4688 13.4062 12.6788 13.4062 12.9375C13.4062 13.1962 13.6163 13.4062 13.875 13.4062Z" fill="#666666"/>
<path d="M3.5625 13.4062C3.82123 13.4062 4.03125 13.1962 4.03125 12.9375C4.03125 12.6788 3.82123 12.4688 3.5625 12.4688C3.30377 12.4688 3.09375 12.6788 3.09375 12.9375C3.09375 13.1962 3.30377 13.4062 3.5625 13.4062Z" fill="#666666"/>
<path d="M0.46875 5.90625C0.727661 5.90625 0.9375 5.69641 0.9375 5.4375V0.9375H5.4375C5.69641 0.9375 5.90625 0.727661 5.90625 0.46875C5.90625 0.209839 5.69641 0 5.4375 0H0.46875C0.209839 0 0 0.209839 0 0.46875V5.4375C0 5.69641 0.209839 5.90625 0.46875 5.90625Z" fill="#666666"/>
<path d="M5.90625 23.5312C5.90625 23.2723 5.69641 23.0625 5.4375 23.0625H0.9375V18.5625C0.9375 18.3036 0.727661 18.0938 0.46875 18.0938C0.209839 18.0938 0 18.3036 0 18.5625V23.5312C0 23.7902 0.209839 24 0.46875 24H5.4375C5.69641 24 5.90625 23.7902 5.90625 23.5312Z" fill="#666666"/>
<path d="M23.5312 18.0938C23.2723 18.0938 23.0625 18.3036 23.0625 18.5625V23.0625H18.5625C18.3036 23.0625 18.0938 23.2723 18.0938 23.5312C18.0938 23.7902 18.3036 24 18.5625 24H23.5312C23.7902 24 24 23.7902 24 23.5312V18.5625C24 18.3036 23.7902 18.0938 23.5312 18.0938Z" fill="#666666"/>
<path d="M23.5312 0H18.5625C18.3036 0 18.0938 0.209839 18.0938 0.46875C18.0938 0.727661 18.3036 0.9375 18.5625 0.9375H23.0625V5.4375C23.0625 5.69641 23.2723 5.90625 23.5312 5.90625C23.7902 5.90625 24 5.69641 24 5.4375V0.46875C24 0.209839 23.7902 0 23.5312 0Z" fill="#666666"/>
<path d="M3.09375 20.4375C3.09375 20.6964 3.30359 20.9062 3.5625 20.9062H8.25C8.50891 20.9062 8.71875 20.6964 8.71875 20.4375V15.75C8.71875 15.4911 8.50891 15.2812 8.25 15.2812H3.5625C3.30359 15.2812 3.09375 15.4911 3.09375 15.75V20.4375ZM4.03125 16.2188H7.78125V19.9688H4.03125V16.2188Z" fill="#666666"/>
<path d="M8.25 3.09375H3.5625C3.30359 3.09375 3.09375 3.30359 3.09375 3.5625V8.25C3.09375 8.50891 3.30359 8.71875 3.5625 8.71875H8.25C8.50891 8.71875 8.71875 8.50891 8.71875 8.25V3.5625C8.71875 3.30359 8.50891 3.09375 8.25 3.09375ZM7.78125 7.78125H4.03125V4.03125H7.78125V7.78125Z" fill="#666666"/>
<path d="M20.9062 3.5625C20.9062 3.30359 20.6964 3.09375 20.4375 3.09375H15.75C15.4911 3.09375 15.2812 3.30359 15.2812 3.5625V8.25C15.2812 8.50891 15.4911 8.71875 15.75 8.71875H20.4375C20.6964 8.71875 20.9062 8.50891 20.9062 8.25V3.5625ZM19.9688 7.78125H16.2188V4.03125H19.9688V7.78125Z" fill="#666666"/>
<path d="M20.9062 20.4375V15.75C20.9062 15.4911 20.6964 15.2812 20.4375 15.2812H15.75C15.4911 15.2812 15.2812 15.4911 15.2812 15.75V20.4375C15.2812 20.6964 15.4911 20.9062 15.75 20.9062H20.4375C20.6964 20.9062 20.9062 20.6964 20.9062 20.4375ZM19.9688 19.9688H16.2188V16.2188H19.9688V19.9688Z" fill="#666666"/>
<path d="M6.375 17.1562H5.4375C5.17859 17.1562 4.96875 17.3661 4.96875 17.625V18.5625C4.96875 18.8214 5.17859 19.0312 5.4375 19.0312H6.375C6.63391 19.0312 6.84375 18.8214 6.84375 18.5625V17.625C6.84375 17.3661 6.63391 17.1562 6.375 17.1562Z" fill="#666666"/>
<path d="M5.4375 6.84375H6.375C6.63391 6.84375 6.84375 6.63391 6.84375 6.375V5.4375C6.84375 5.17859 6.63391 4.96875 6.375 4.96875H5.4375C5.17859 4.96875 4.96875 5.17859 4.96875 5.4375V6.375C4.96875 6.63391 5.17859 6.84375 5.4375 6.84375Z" fill="#666666"/>
<path d="M17.625 6.84375H18.5625C18.8214 6.84375 19.0312 6.63391 19.0312 6.375V5.4375C19.0312 5.17859 18.8214 4.96875 18.5625 4.96875H17.625C17.3661 4.96875 17.1562 5.17859 17.1562 5.4375V6.375C17.1562 6.63391 17.3661 6.84375 17.625 6.84375Z" fill="#666666"/>
<path d="M17.625 19.0312H18.5625C18.8214 19.0312 19.0312 18.8214 19.0312 18.5625V17.625C19.0312 17.3661 18.8214 17.1562 18.5625 17.1562H17.625C17.3661 17.1562 17.1562 17.3661 17.1562 17.625V18.5625C17.1562 18.8214 17.3661 19.0312 17.625 19.0312Z" fill="#666666"/>
<path d="M4.96875 12.9375C4.96875 13.1964 5.17859 13.4062 5.4375 13.4062H11.5312V15.75C11.5312 16.0089 11.7411 16.2188 12 16.2188C12.2589 16.2188 12.4688 16.0089 12.4688 15.75V12.9375C12.4688 12.6786 12.2589 12.4688 12 12.4688H5.4375C5.17859 12.4688 4.96875 12.6786 4.96875 12.9375Z" fill="#666666"/>
<path d="M8.25 11.5312C8.50891 11.5312 8.71875 11.3214 8.71875 11.0625C8.71875 10.8036 8.50891 10.5938 8.25 10.5938H3.5625C3.30359 10.5938 3.09375 10.8036 3.09375 11.0625C3.09375 11.3214 3.30359 11.5312 3.5625 11.5312H8.25Z" fill="#666666"/>
<path d="M10.125 11.5312H12C12.2589 11.5312 12.4688 11.3214 12.4688 11.0625C12.4688 10.8036 12.2589 10.5938 12 10.5938H10.125C9.86609 10.5938 9.65625 10.8036 9.65625 11.0625C9.65625 11.3214 9.86609 11.5312 10.125 11.5312Z" fill="#666666"/>
<path d="M10.125 3.09375C9.86609 3.09375 9.65625 3.30359 9.65625 3.5625V8.25C9.65625 8.50891 9.86609 8.71875 10.125 8.71875H13.4062V11.0625C13.4062 11.3214 13.6161 11.5312 13.875 11.5312H15.75C16.0089 11.5312 16.2188 11.3214 16.2188 11.0625C16.2188 10.8036 16.0089 10.5938 15.75 10.5938H14.3438V8.25C14.3438 7.99109 14.1339 7.78125 13.875 7.78125H10.5938V3.5625C10.5938 3.30359 10.3839 3.09375 10.125 3.09375Z" fill="#666666"/>
<path d="M20.4375 10.5938H17.625C17.3661 10.5938 17.1562 10.8036 17.1562 11.0625C17.1562 11.3214 17.3661 11.5312 17.625 11.5312H20.4375C20.6964 11.5312 20.9062 11.3214 20.9062 11.0625C20.9062 10.8036 20.6964 10.5938 20.4375 10.5938Z" fill="#666666"/>
<path d="M20.4375 12.4688H15.75C15.4911 12.4688 15.2812 12.6786 15.2812 12.9375C15.2812 13.1964 15.4911 13.4062 15.75 13.4062H20.4375C20.6964 13.4062 20.9062 13.1964 20.9062 12.9375C20.9062 12.6786 20.6964 12.4688 20.4375 12.4688Z" fill="#666666"/>
<path d="M12 17.1562H10.125C9.86609 17.1562 9.65625 17.3661 9.65625 17.625V20.4375C9.65625 20.6964 9.86609 20.9062 10.125 20.9062C10.3839 20.9062 10.5938 20.6964 10.5938 20.4375V18.0938H12C12.2589 18.0938 12.4688 17.8839 12.4688 17.625C12.4688 17.3661 12.2589 17.1562 12 17.1562Z" fill="#666666"/>
<path d="M13.4062 19.9688H12C11.7411 19.9688 11.5312 20.1786 11.5312 20.4375C11.5312 20.6964 11.7411 20.9062 12 20.9062H13.875C14.1339 20.9062 14.3438 20.6964 14.3438 20.4375V14.8125C14.3438 14.5536 14.1339 14.3438 13.875 14.3438C13.6161 14.3438 13.4062 14.5536 13.4062 14.8125V19.9688Z" fill="#666666"/>
<path d="M13.875 6.84375C14.1339 6.84375 14.3438 6.63391 14.3438 6.375V3.5625C14.3438 3.30359 14.1339 3.09375 13.875 3.09375C13.6161 3.09375 13.4062 3.30359 13.4062 3.5625V5.90625H12C11.7411 5.90625 11.5312 6.11609 11.5312 6.375C11.5312 6.63391 11.7411 6.84375 12 6.84375H13.875Z" fill="#666666"/>
</svg>
